<svg xmlns="http://www.w3.org/2000/svg" width="463" height="456.023" viewBox="0 0 463 456.023">
  <g id="Grupo_14234" data-name="Grupo 14234" transform="translate(-706 -87.803)">
    <path id="Trazado_3185" data-name="Trazado 3185" d="M-9671.922,2850.831h459" transform="translate(10379.922 -2309.004)" fill="none" stroke="#ffde52" stroke-linecap="round" stroke-width="4"/>
    <g id="Grupo_11865" data-name="Grupo 11865" transform="translate(681.397 54.425)">
      <g id="BACKGROUND" transform="translate(-3.993 -4)">
        <path id="Trazado_3230" data-name="Trazado 3230" d="M56.924,83.481c-8.428,18.226-3.4,40.6,3.32,59.931S75.411,182.618,73.3,203.077c-2.281,22.115-16.41,40.054-23.424,60.82a96.839,96.839,0,0,0,.961,63.789c7.562,20.2,22.419,37.043,40.535,45.5,31.865,14.88,67.677,3.321,101.965,1.275,33.278-1.986,66.559,5.287,99.037,14.3,36.29,10.068,73,22.46,110.147,19.693,10.687-.8,21.526-2.949,30.76-8.87,14.412-9.241,23.269-26.754,27.073-44.853,12.962-61.678-25.611-123.3-27.189-186.855-.719-28.975,5.92-60.11-6.837-85.569-9.217-18.4-26.9-29.64-44.736-36.522C357.007,36.3,329.43,33.539,305.568,44.37c-12.649,5.741-23.808,15.055-36.661,20.222-42.843,17.223-83.193-13.561-125.469-16.816C116.8,45.725,69.959,55.292,56.924,83.481Z" fill="#22b26f" opacity="0.996"/>
      </g>
      <g id="OBJECTS">
        <g id="Grupo_11864" data-name="Grupo 11864">
          <g id="Grupo_11846" data-name="Grupo 11846">
            <g id="Grupo_11824" data-name="Grupo 11824">
              <path id="Trazado_3231" data-name="Trazado 3231" d="M176.607,304.579c.309,9.235-1.287,18.858,2.1,27.457,2.864,7.283,9.2,13.577,8.98,21.4-.175,6.333-4.811,11.436-10.634,14.3a25.023,25.023,0,0,1-7.061,2.257c-7.625,1.214-16.264-.807-20.9-6.978-4.355-5.806-4.785-14.5-10.761-18.615-3.641-2.507-8.4-2.556-12.8-2.182s-8.948,1.062-13.169-.255-7.973-5.454-7.111-9.792c.766-3.839,4.795-6.6,4.916-10.514.106-3.447-2.958-6.214-6.161-7.49s-6.732-1.587-9.88-2.982c-8.558-3.8-11.682-16.263-5.929-23.644,1.795-2.3,4.33-4.273,4.861-7.143,1.414-7.621-11.907-11.69-10.9-19.374A7.429,7.429,0,0,1,85.5,255.67c7.023-4.842,22.914-2.451,29.1-2.377,7.247.088,13.185,1.489,17.223,7.916,3.4,5.423,3.736,12.832,9.351,16.764,6.447,4.516,15.619.986,23.014,3.682C172.866,284.819,176.3,295.347,176.607,304.579Z" fill="#c4eaf9"/>
              <g id="Grupo_11818" data-name="Grupo 11818">
                <path id="Trazado_3232" data-name="Trazado 3232" d="M182.171,398.4l-.029.006a.215.215,0,0,1-.244-.183c-5.172-36.075-25.637-66.622-49.853-99.979-4.205-5.793-8.972-12.359-14.466-17.917-7.848-7.939-17.365-14.108-26.569-20.074a.216.216,0,1,1,.235-.363c9.223,5.979,18.761,12.161,26.641,20.134,5.517,5.581,10.294,12.161,14.509,17.966,24.25,33.4,44.745,64,49.93,100.172A.216.216,0,0,1,182.171,398.4Z" fill="#7162c8"/>
              </g>
              <g id="Grupo_11819" data-name="Grupo 11819">
                <path id="Trazado_3233" data-name="Trazado 3233" d="M117.777,280.6a.141.141,0,0,1-.041.007l-19.657,1.682a.215.215,0,1,1-.037-.429l19.42-1.662c-1.237-6.6-2.324-13.309-3.23-19.952a.219.219,0,0,1,.185-.243.216.216,0,0,1,.243.185c.916,6.714,2.016,13.5,3.27,20.164a.218.218,0,0,1-.04.171A.216.216,0,0,1,117.777,280.6Z" fill="#7162c8"/>
              </g>
              <g id="Grupo_11820" data-name="Grupo 11820">
                <path id="Trazado_3234" data-name="Trazado 3234" d="M132.843,299.07a.2.2,0,0,1-.041.008l-19.657,1.681a.215.215,0,1,1-.037-.429l19.419-1.662c-1.235-6.591-2.321-13.3-3.229-19.951a.219.219,0,0,1,.185-.244.216.216,0,0,1,.243.185c.917,6.721,2.017,13.506,3.27,20.165a.218.218,0,0,1-.041.171A.211.211,0,0,1,132.843,299.07Z" fill="#7162c8"/>
              </g>
              <g id="Grupo_11821" data-name="Grupo 11821">
                <path id="Trazado_3235" data-name="Trazado 3235" d="M146.547,318.377a.234.234,0,0,1-.059.008l-19.73.036a.216.216,0,1,1,0-.432l19.49-.035c-.682-6.678-1.2-13.456-1.553-20.152a.216.216,0,0,1,.432-.022c.352,6.768.882,13.62,1.575,20.367a.221.221,0,0,1-.054.167A.225.225,0,0,1,146.547,318.377Z" fill="#7162c8"/>
              </g>
              <g id="Grupo_11822" data-name="Grupo 11822">
                <path id="Trazado_3236" data-name="Trazado 3236" d="M159.763,338.927a.2.2,0,0,1-.059.009l-19.729.036a.216.216,0,1,1,0-.433l19.49-.034c-.681-6.678-1.2-13.456-1.553-20.152a.216.216,0,0,1,.432-.022c.353,6.767.882,13.62,1.575,20.367a.219.219,0,0,1-.054.166A.209.209,0,0,1,159.763,338.927Z" fill="#7162c8"/>
              </g>
              <g id="Grupo_11823" data-name="Grupo 11823">
                <path id="Trazado_3237" data-name="Trazado 3237" d="M171.345,361.458a.216.216,0,0,1-.11,0L152.064,356.8a.216.216,0,0,1,.1-.42l18.939,4.6c.925-6.643,2.03-13.352,3.284-19.942a.216.216,0,1,1,.424.08c-1.267,6.662-2.382,13.445-3.313,20.158a.214.214,0,0,1-.092.149A.225.225,0,0,1,171.345,361.458Z" fill="#7162c8"/>
              </g>
              <path id="Trazado_3238" data-name="Trazado 3238" d="M176.607,304.579c.309,9.235-1.287,18.858,2.1,27.457,2.864,7.283,9.2,13.577,8.98,21.4-.175,6.333-4.811,11.436-10.634,14.3A20.516,20.516,0,0,1,175.488,366c-12.488-15.544-.405-41.472-12.607-57.241-8.915-11.517-27.628-12.863-34.688-25.6-3.114-5.613-3.446-12.776-7.87-17.426-8.58-9.022-23.693-5.3-34.821-10.057,7.023-4.842,22.914-2.451,29.1-2.377,7.247.088,13.185,1.489,17.223,7.916,3.4,5.423,3.736,12.832,9.351,16.764,6.447,4.516,15.619.986,23.014,3.682C172.866,284.819,176.3,295.347,176.607,304.579Z" fill="#acdbea" opacity="0.4"/>
            </g>
            <g id="Grupo_11831" data-name="Grupo 11831">
              <path id="Trazado_3239" data-name="Trazado 3239" d="M338.734,339.661c-.31,9.236,1.286,18.858-2.1,27.457-2.864,7.283-9.2,13.577-8.98,21.4.174,6.333,4.81,11.435,10.634,14.3a24.981,24.981,0,0,0,7.061,2.257c7.625,1.214,16.264-.807,20.9-6.978,4.355-5.806,4.784-14.5,10.761-18.615,3.64-2.507,8.4-2.556,12.8-2.182s8.948,1.062,13.169-.255,7.972-5.454,7.111-9.792c-.767-3.839-4.8-6.6-4.917-10.513-.105-3.448,2.958-6.215,6.161-7.49s6.733-1.588,9.88-2.983c8.559-3.8,11.683-16.263,5.929-23.644-1.794-2.3-4.329-4.273-4.861-7.142-1.413-7.622,11.907-11.691,10.9-19.375a7.423,7.423,0,0,0-3.351-5.355c-7.023-4.842-22.913-2.451-29.1-2.377-7.247.088-13.185,1.489-17.223,7.916-3.4,5.423-3.736,12.832-9.352,16.764-6.447,4.516-15.619.987-23.014,3.682C342.474,319.9,339.038,330.429,338.734,339.661Z" fill="#c4eaf9"/>
              <g id="Grupo_11825" data-name="Grupo 11825">
                <path id="Trazado_3240" data-name="Trazado 3240" d="M333.169,433.481l.029.006a.216.216,0,0,0,.245-.183c5.171-36.075,25.637-66.622,49.852-99.979,4.206-5.793,8.973-12.358,14.466-17.917,7.848-7.939,17.366-14.108,26.57-20.074a.216.216,0,0,0-.235-.363c-9.224,5.979-18.761,12.161-26.642,20.134-5.517,5.581-10.294,12.161-14.508,17.967-24.25,33.4-44.745,64-49.93,100.171A.215.215,0,0,0,333.169,433.481Z" fill="#7162c8"/>
              </g>
              <g id="Grupo_11826" data-name="Grupo 11826">
                <path id="Trazado_3241" data-name="Trazado 3241" d="M397.563,315.685a.2.2,0,0,0,.041.008l19.658,1.682a.216.216,0,0,0,.037-.43l-19.42-1.662c1.237-6.6,2.323-13.309,3.229-19.952a.219.219,0,0,0-.185-.243.216.216,0,0,0-.243.185c-.916,6.714-2.016,13.5-3.269,20.165a.216.216,0,0,0,.152.247Z" fill="#7162c8"/>
              </g>
              <g id="Grupo_11827" data-name="Grupo 11827">
                <path id="Trazado_3242" data-name="Trazado 3242" d="M382.5,334.153a.186.186,0,0,0,.041.007l19.657,1.682a.216.216,0,0,0,.037-.43l-19.42-1.662c1.236-6.591,2.322-13.3,3.23-19.951a.217.217,0,0,0-.429-.059c-.917,6.721-2.017,13.506-3.269,20.165a.215.215,0,0,0,.153.248Z" fill="#7162c8"/>
              </g>
              <g id="Grupo_11828" data-name="Grupo 11828">
                <path id="Trazado_3243" data-name="Trazado 3243" d="M368.794,353.459a.2.2,0,0,0,.059.009l19.729.035a.216.216,0,1,0,0-.432l-19.491-.035c.682-6.678,1.2-13.456,1.553-20.151a.216.216,0,1,0-.431-.023c-.353,6.768-.882,13.62-1.576,20.368a.217.217,0,0,0,.156.229Z" fill="#7162c8"/>
              </g>
              <g id="Grupo_11829" data-name="Grupo 11829">
                <path id="Trazado_3244" data-name="Trazado 3244" d="M355.578,374.01a.233.233,0,0,0,.059.008l19.729.036a.216.216,0,0,0,0-.432l-19.491-.035c.682-6.678,1.2-13.456,1.553-20.152a.216.216,0,1,0-.431-.022c-.353,6.767-.883,13.62-1.576,20.367a.218.218,0,0,0,.055.167A.215.215,0,0,0,355.578,374.01Z" fill="#7162c8"/>
              </g>
              <g id="Grupo_11830" data-name="Grupo 11830">
                <path id="Trazado_3245" data-name="Trazado 3245" d="M343.995,396.54a.206.206,0,0,0,.11,0l19.172-4.657a.216.216,0,0,0,.159-.261.214.214,0,0,0-.261-.158l-18.94,4.6c-.925-6.644-2.029-13.352-3.284-19.943a.215.215,0,0,0-.252-.172.217.217,0,0,0-.172.253c1.268,6.662,2.383,13.444,3.314,20.158a.211.211,0,0,0,.092.148A.207.207,0,0,0,343.995,396.54Z" fill="#7162c8"/>
              </g>
              <path id="Trazado_3246" data-name="Trazado 3246" d="M338.734,339.661c-.31,9.236,1.286,18.858-2.1,27.457-2.864,7.283-9.2,13.577-8.98,21.4.174,6.333,4.81,11.435,10.634,14.3a20.526,20.526,0,0,0,1.562-1.741c12.487-15.543.4-41.472,12.606-57.241,8.916-11.517,27.629-12.863,34.689-25.6,3.114-5.613,3.446-12.776,7.87-17.426,8.579-9.022,23.693-5.3,34.82-10.057-7.023-4.842-22.913-2.451-29.1-2.377-7.247.088-13.185,1.489-17.223,7.916-3.4,5.423-3.736,12.832-9.352,16.764-6.447,4.516-15.619.987-23.014,3.682C342.474,319.9,339.038,330.429,338.734,339.661Z" fill="#acdbea" opacity="0.4"/>
            </g>
            <g id="Grupo_11838" data-name="Grupo 11838" opacity="0.5">
              <g id="Grupo_11832" data-name="Grupo 11832">
                <path id="Trazado_3247" data-name="Trazado 3247" d="M307.864,338.379l-.508-.377c11.015-14.837,17.105-32.791,23-50.156,1.77-5.215,3.6-10.607,5.533-15.829,10.823-29.223,24.881-47.568,42.98-56.084l.268.572c-17.94,8.442-31.893,26.672-42.655,55.732-1.931,5.213-3.759,10.6-5.527,15.812C325.044,305.46,318.938,323.463,307.864,338.379Z" fill="#0a4d2e"/>
              </g>
              <path id="Trazado_3248" data-name="Trazado 3248" d="M396.609,201.759s-17.55,2.661-22.883,17.439C373.726,219.2,390.64,220.166,396.609,201.759Z" fill="#0a4d2e"/>
              <g id="Grupo_11833" data-name="Grupo 11833">
                <path id="Trazado_3249" data-name="Trazado 3249" d="M354.2,203.3s-5.856,16.757,4.712,28.382C358.912,231.678,367.678,217.181,354.2,203.3Z" fill="#0a4d2e"/>
                <path id="Trazado_3250" data-name="Trazado 3250" d="M387.647,230.273s-15.968-7.75-28.735,1.4C358.912,231.678,372.3,242.059,387.647,230.273Z" fill="#0a4d2e"/>
              </g>
              <g id="Grupo_11834" data-name="Grupo 11834">
                <path id="Trazado_3251" data-name="Trazado 3251" d="M341.778,220.9s-5.856,16.757,4.712,28.382C346.49,249.283,355.257,234.786,341.778,220.9Z" fill="#0a4d2e"/>
                <path id="Trazado_3252" data-name="Trazado 3252" d="M375.226,247.878s-15.969-7.751-28.736,1.4C346.49,249.283,359.878,259.664,375.226,247.878Z" fill="#0a4d2e"/>
              </g>
              <g id="Grupo_11835" data-name="Grupo 11835">
                <path id="Trazado_3253" data-name="Trazado 3253" d="M326.457,244.554s-2.7,17.543,9.8,27.048C336.26,271.6,342.239,255.751,326.457,244.554Z" fill="#0a4d2e"/>
                <path id="Trazado_3254" data-name="Trazado 3254" d="M364.259,264.987s-17.113-4.713-28,6.615C336.26,271.6,351.316,279.371,364.259,264.987Z" fill="#0a4d2e"/>
              </g>
              <g id="Grupo_11836" data-name="Grupo 11836">
                <path id="Trazado_3255" data-name="Trazado 3255" d="M318.916,266.375s-2.7,17.543,9.8,27.048C328.719,293.423,334.7,277.572,318.916,266.375Z" fill="#0a4d2e"/>
                <path id="Trazado_3256" data-name="Trazado 3256" d="M356.718,286.807s-17.113-4.712-28,6.616C328.719,293.423,343.775,301.192,356.718,286.807Z" fill="#0a4d2e"/>
              </g>
              <g id="Grupo_11837" data-name="Grupo 11837">
                <path id="Trazado_3257" data-name="Trazado 3257" d="M309.619,288.488s-2.706,17.543,9.8,27.048C319.422,315.536,325.4,299.684,309.619,288.488Z" fill="#0a4d2e"/>
                <path id="Trazado_3258" data-name="Trazado 3258" d="M347.421,308.92s-17.114-4.712-28,6.616C319.422,315.536,334.477,323.3,347.421,308.92Z" fill="#0a4d2e"/>
              </g>
            </g>
            <g id="Grupo_11845" data-name="Grupo 11845">
              <g id="Grupo_11839" data-name="Grupo 11839">
                <path id="Trazado_3259" data-name="Trazado 3259" d="M204.021,319.665l-.611.158c-4.622-17.891-14.762-33.911-24.57-49.4-2.945-4.653-5.99-9.464-8.838-14.25-15.932-26.781-21.37-49.245-16.623-68.675l.614.15c-4.706,19.261.708,41.57,16.553,68.2,2.843,4.777,5.886,9.585,8.829,14.235C189.208,285.615,199.376,301.678,204.021,319.665Z" fill="#157f4d"/>
              </g>
              <path id="Trazado_3260" data-name="Trazado 3260" d="M153.5,164.783s-8.957,15.324-.811,28.758C152.691,193.541,164.072,180.992,153.5,164.783Z" fill="#157f4d"/>
              <g id="Grupo_11840" data-name="Grupo 11840">
                <path id="Trazado_3261" data-name="Trazado 3261" d="M128.051,198.74s9.356,15.085,25.04,14.168C153.091,212.908,147.321,196.979,128.051,198.74Z" fill="#157f4d"/>
                <path id="Trazado_3262" data-name="Trazado 3262" d="M170.054,189.671s-16.064,7.553-16.963,23.237C153.091,212.908,169.579,209.016,170.054,189.671Z" fill="#157f4d"/>
              </g>
              <g id="Grupo_11841" data-name="Grupo 11841">
                <path id="Trazado_3263" data-name="Trazado 3263" d="M133.942,219.465s9.356,15.085,25.039,14.168C158.981,233.633,153.212,217.7,133.942,219.465Z" fill="#157f4d"/>
                <path id="Trazado_3264" data-name="Trazado 3264" d="M175.944,210.4s-16.063,7.553-16.963,23.237C158.981,233.633,175.47,229.741,175.944,210.4Z" fill="#157f4d"/>
              </g>
              <g id="Grupo_11842" data-name="Grupo 11842">
                <path id="Trazado_3265" data-name="Trazado 3265" d="M142.715,246.246s11.947,13.128,27.2,9.37C169.917,255.616,161.342,241,142.715,246.246Z" fill="#157f4d"/>
                <path id="Trazado_3266" data-name="Trazado 3266" d="M182.363,229.677s-14.419,10.353-12.446,25.939C169.917,255.616,185.42,248.785,182.363,229.677Z" fill="#157f4d"/>
              </g>
              <g id="Grupo_11843" data-name="Grupo 11843">
                <path id="Trazado_3267" data-name="Trazado 3267" d="M154.952,265.824s11.947,13.127,27.2,9.369C182.153,275.193,173.579,260.582,154.952,265.824Z" fill="#157f4d"/>
                <path id="Trazado_3268" data-name="Trazado 3268" d="M194.6,249.255s-14.419,10.352-12.447,25.938C182.153,275.193,197.657,268.362,194.6,249.255Z" fill="#157f4d"/>
              </g>
              <g id="Grupo_11844" data-name="Grupo 11844">
                <path id="Trazado_3269" data-name="Trazado 3269" d="M166.312,286.951s11.948,13.127,27.2,9.369C193.514,296.32,184.939,281.709,166.312,286.951Z" fill="#157f4d"/>
                <path id="Trazado_3270" data-name="Trazado 3270" d="M205.96,270.382s-14.419,10.352-12.446,25.938C193.514,296.32,209.017,289.489,205.96,270.382Z" fill="#157f4d"/>
              </g>
            </g>
          </g>
          <g id="Grupo_11863" data-name="Grupo 11863">
            <ellipse id="Elipse_550" data-name="Elipse 550" cx="132.177" cy="11.829" rx="132.177" ry="11.829" transform="translate(117.244 455.256)" fill="#21b26e"/>
            <g id="Grupo_11862" data-name="Grupo 11862">
              <g id="Grupo_11852" data-name="Grupo 11852">
                <g id="Grupo_11847" data-name="Grupo 11847">
                  <path id="Rectángulo_3126" data-name="Rectángulo 3126" d="M0,0H75.647a7.9,7.9,0,0,1,7.9,7.9v6.094a7.9,7.9,0,0,1-7.9,7.9H0a0,0,0,0,1,0,0V0A0,0,0,0,1,0,0Z" transform="translate(229.292 313.1)" fill="#0080ce"/>
                  <path id="Trazado_3271" data-name="Trazado 3271" d="M258.968,313.1V335H175.42v-3.745h5.328v-13.83H175.42V313.1Z" fill="#00a1f2"/>
                  <path id="Trazado_3272" data-name="Trazado 3272" d="M306.434,331.251H178.157a19.507,19.507,0,0,0,0-13.83h128.22a1.639,1.639,0,0,1,1.567,1.158,18.281,18.281,0,0,1,.036,11.58A1.634,1.634,0,0,1,306.434,331.251Z" fill="#fcfcfc"/>
                  <path id="Trazado_3273" data-name="Trazado 3273" d="M306.354,331.251H258.968v-13.83h47.325a1.751,1.751,0,0,1,1.676,1.238,18.274,18.274,0,0,1,.037,11.424A1.742,1.742,0,0,1,306.354,331.251Z" fill="#ddd"/>
                  <path id="Trazado_3274" data-name="Trazado 3274" d="M307.969,318.659a1.751,1.751,0,0,0-1.676-1.238h-2.017a1.751,1.751,0,0,1,1.676,1.238,18.274,18.274,0,0,1,.037,11.424,1.741,1.741,0,0,1-1.652,1.168h2.017a1.742,1.742,0,0,0,1.652-1.168A18.274,18.274,0,0,0,307.969,318.659Z" fill="#4f4f4f"/>
                  <path id="Trazado_3275" data-name="Trazado 3275" d="M258.968,327.024l-48.306.576,48.306.576Z" fill="#e2e2e2"/>
                  <path id="Trazado_3276" data-name="Trazado 3276" d="M258.968,320.626l-29.676.8,29.676,1.363Z" fill="#e2e2e2"/>
                </g>
                <g id="Grupo_11848" data-name="Grupo 11848">
                  <path id="Rectángulo_3127" data-name="Rectángulo 3127" d="M0,0H63.27A14.773,14.773,0,0,1,78.042,14.773V16.12A14.772,14.772,0,0,1,63.27,30.893H0a0,0,0,0,1,0,0V0A0,0,0,0,1,0,0Z" transform="translate(255.689 391.21)" fill="#57b5b5"/>
                  <path id="Trazado_3277" data-name="Trazado 3277" d="M255.689,391.21V422.1H137.808v-5.284h7.517V397.3h-7.517V391.21Z" fill="#90dee0"/>
                  <path id="Trazado_3278" data-name="Trazado 3278" d="M322.661,416.818H141.669a27.527,27.527,0,0,0,0-19.514H322.58a2.314,2.314,0,0,1,2.211,1.634,25.793,25.793,0,0,1,.05,16.34A2.306,2.306,0,0,1,322.661,416.818Z" fill="#fcfcfc"/>
                  <path id="Trazado_3279" data-name="Trazado 3279" d="M322.547,416.818H255.689V397.3h66.773a2.47,2.47,0,0,1,2.364,1.748,25.771,25.771,0,0,1,.052,16.118A2.458,2.458,0,0,1,322.547,416.818Z" fill="#ddd"/>
                  <path id="Trazado_3280" data-name="Trazado 3280" d="M324.826,399.052a2.47,2.47,0,0,0-2.365-1.748h-2.845a2.47,2.47,0,0,1,2.364,1.748,25.778,25.778,0,0,1,.053,16.118,2.459,2.459,0,0,1-2.331,1.648h2.845a2.458,2.458,0,0,0,2.331-1.648A25.771,25.771,0,0,0,324.826,399.052Z" fill="#4f4f4f"/>
                  <path id="Trazado_3281" data-name="Trazado 3281" d="M255.689,410.854l-68.157.813,68.157.813Z" fill="#e2e2e2"/>
                  <path id="Trazado_3282" data-name="Trazado 3282" d="M255.689,401.827l-41.871,1.126,41.871,1.923Z" fill="#e2e2e2"/>
                </g>
                <g id="Grupo_11849" data-name="Grupo 11849">
                  <path id="Rectángulo_3128" data-name="Rectángulo 3128" d="M0,0H106.734a11.147,11.147,0,0,1,11.147,11.147v8.6a11.147,11.147,0,0,1-11.147,11.147H0a0,0,0,0,1,0,0V0A0,0,0,0,1,0,0Z" transform="translate(207.042 334.995)" fill="#7c47af"/>
                  <path id="Trazado_3283" data-name="Trazado 3283" d="M248.913,335v30.893H131.032V360.6h7.517V341.091h-7.517V335Z" fill="#945bd6"/>
                  <path id="Trazado_3284" data-name="Trazado 3284" d="M315.885,360.605H134.893a27.527,27.527,0,0,0,0-19.514H315.8a2.314,2.314,0,0,1,2.211,1.634,25.8,25.8,0,0,1,.05,16.34A2.306,2.306,0,0,1,315.885,360.605Z" fill="#fcfcfc"/>
                  <path id="Trazado_3285" data-name="Trazado 3285" d="M315.771,360.605H248.913V341.091h66.772a2.47,2.47,0,0,1,2.365,1.748,25.785,25.785,0,0,1,.052,16.118A2.458,2.458,0,0,1,315.771,360.605Z" fill="#ddd"/>
                  <path id="Trazado_3286" data-name="Trazado 3286" d="M318.05,342.839a2.47,2.47,0,0,0-2.365-1.748H312.84a2.47,2.47,0,0,1,2.364,1.748,25.771,25.771,0,0,1,.052,16.118,2.457,2.457,0,0,1-2.331,1.648h2.846a2.458,2.458,0,0,0,2.331-1.648A25.785,25.785,0,0,0,318.05,342.839Z" fill="#4f4f4f"/>
                  <path id="Trazado_3287" data-name="Trazado 3287" d="M248.913,354.641l-68.157.813,68.157.813Z" fill="#e2e2e2"/>
                  <path id="Trazado_3288" data-name="Trazado 3288" d="M248.913,345.614l-41.871,1.126,41.871,1.923Z" fill="#e2e2e2"/>
                </g>
                <g id="Grupo_11850" data-name="Grupo 11850">
                  <path id="Rectángulo_3129" data-name="Rectángulo 3129" d="M0,0H105.627a20.414,20.414,0,0,1,20.414,20.414v7.541A20.414,20.414,0,0,1,105.627,48.37H0a0,0,0,0,1,0,0V0A0,0,0,0,1,0,0Z" transform="translate(230.993 421.949)" fill="#d85852"/>
                  <path id="Trazado_3289" data-name="Trazado 3289" d="M272.864,421.951v48.37H154.983v-8.273H162.5V431.495h-7.517v-9.543Z" fill="#ef6f6f"/>
                  <path id="Trazado_3290" data-name="Trazado 3290" d="M339.835,462.048H158.844a66.181,66.181,0,0,0,0-30.553H339.755c1.015,0,1.914,1.039,2.211,2.557a62.284,62.284,0,0,1,.05,25.584C341.7,461.084,340.814,462.048,339.835,462.048Z" fill="#fcfcfc"/>
                  <path id="Trazado_3291" data-name="Trazado 3291" d="M339.722,462.048H272.864V431.495h66.772c1.085,0,2.05,1.109,2.364,2.735a62.266,62.266,0,0,1,.053,25.238C341.715,461.019,340.769,462.048,339.722,462.048Z" fill="#ddd"/>
                  <path id="Trazado_3292" data-name="Trazado 3292" d="M342,434.231c-.314-1.627-1.279-2.736-2.364-2.736h-2.845c1.085,0,2.05,1.109,2.364,2.736a62.243,62.243,0,0,1,.052,25.237c-.337,1.551-1.284,2.58-2.331,2.58h2.846c1.047,0,1.993-1.029,2.331-2.58A62.261,62.261,0,0,0,342,434.231Z" fill="#4f4f4f"/>
                  <path id="Trazado_3293" data-name="Trazado 3293" d="M272.864,452.71l-68.157,1.273,68.157,1.273Z" fill="#e2e2e2"/>
                  <path id="Trazado_3294" data-name="Trazado 3294" d="M272.864,438.576l-41.871,1.763,41.871,3.01Z" fill="#e2e2e2"/>
                </g>
                <g id="Grupo_11851" data-name="Grupo 11851">
                  <path id="Rectángulo_3130" data-name="Rectángulo 3130" d="M0,0H66.035A12.585,12.585,0,0,1,78.62,12.585v.186A12.585,12.585,0,0,1,66.035,25.357H0a0,0,0,0,1,0,0V0A0,0,0,0,1,0,0Z" transform="translate(264.7 365.853)" fill="#db7e21"/>
                  <path id="Trazado_3295" data-name="Trazado 3295" d="M275.1,365.854V391.21H178.345v-4.337h6.17V370.857h-6.17v-5Z" fill="#f49c3b"/>
                  <path id="Trazado_3296" data-name="Trazado 3296" d="M330.064,386.873H181.515a22.6,22.6,0,0,0,0-16.016H330a1.9,1.9,0,0,1,1.814,1.341,21.167,21.167,0,0,1,.041,13.41A1.892,1.892,0,0,1,330.064,386.873Z" fill="#fcfcfc"/>
                  <path id="Trazado_3297" data-name="Trazado 3297" d="M329.97,386.873H275.1V370.857h54.8a2.027,2.027,0,0,1,1.941,1.434,21.153,21.153,0,0,1,.042,13.229A2.018,2.018,0,0,1,329.97,386.873Z" fill="#ddd"/>
                  <path id="Trazado_3298" data-name="Trazado 3298" d="M331.841,372.291a2.027,2.027,0,0,0-1.941-1.434h-2.335a2.026,2.026,0,0,1,1.94,1.434,21.146,21.146,0,0,1,.043,13.229,2.018,2.018,0,0,1-1.913,1.353h2.335a2.02,2.02,0,0,0,1.914-1.353A21.16,21.16,0,0,0,331.841,372.291Z" fill="#4f4f4f"/>
                  <path id="Trazado_3299" data-name="Trazado 3299" d="M275.1,381.978l-36.9.894,36.9.44Z" fill="#e2e2e2"/>
                  <path id="Trazado_3300" data-name="Trazado 3300" d="M275.1,375.052l-17.183.768,17.183.452Z" fill="#e2e2e2"/>
                </g>
              </g>
              <g id="Grupo_11861" data-name="Grupo 11861">
                <path id="Trazado_3301" data-name="Trazado 3301" d="M279.294,203.242c0,.175.048,3.782,4.014,8.385-14.761,9.9-41.617,6.918-41.617,6.918-21.486,5.242-34.188-5.33-39.318-11.122,8.752-6.511,8.832-12.591,8.832-12.8-2.41,4.795-7.388,7.635-11.314,9.215,6.136-4.532,15.128-23.353,16.293-33.318,1.18-10.061,2.09-12.415,8.369-18.7s16.588-2.075,16.588-2.075C272.361,138.32,285.43,208.97,285.6,209.9A17.352,17.352,0,0,1,279.294,203.242Z" fill="#2e353d"/>
                <g id="Grupo_11860" data-name="Grupo 11860">
                  <path id="Trazado_3302" data-name="Trazado 3302" d="M267.236,213.7s25.254,12.757,26.431,54.076l-17.56-2.492S266.8,226.255,267.236,213.7Z" fill="#f96142"/>
                  <path id="Trazado_3303" data-name="Trazado 3303" d="M219.244,213.7s-28.528,15.05-29.706,56.37l20.836-4.786S219.683,226.255,219.244,213.7Z" fill="#f96142"/>
                  <path id="Trazado_3304" data-name="Trazado 3304" d="M269.162,253.536c-7.178,8.588-6.382,31.38-6.382,31.38l-19.548,1.653-19.548-1.653s.8-22.792-6.382-31.38-4.791-25.433-2.4-35.009c.725-2.895,3.6-4.827,7.254-6.109,8.446-2.966,21.074-2.484,21.074-2.484s11.756-.446,20.166,2.185c4.081,1.272,7.377,3.275,8.157,6.408C273.953,228.1,276.346,244.949,269.162,253.536Z" fill="#f96142"/>
                  <path id="Trazado_3305" data-name="Trazado 3305" d="M175.351,277.027s53.016,4.459,67.385,9.414c0,0,55.989-14.865,68.376-9.414,0,0-31.215,38.647-67.88,35.674S179.315,292.386,175.351,277.027Z" fill="#969b2c"/>
                  <g id="Grupo_11853" data-name="Grupo 11853">
                    <path id="Trazado_3306" data-name="Trazado 3306" d="M271.971,315.764c-1.313.1-11.787,2.18-22.737,4.461-6.945,1.445-14.088,2.971-19.213,4.127a48.768,48.768,0,0,1-8.441,1.171c-9.535.451-16.795-2.606-15.507-10.337.862-5.166,6.636-5.708,11.4-5.14a30.358,30.358,0,0,1,4.3.831,28.927,28.927,0,0,0,10.311.968,66.1,66.1,0,0,0,13.505-2.9,103.307,103.307,0,0,0,16-6.7,32.332,32.332,0,0,0,5.536-3.64c8.247-6.743,38.614-30.224,48.286-18.848a10.6,10.6,0,0,1,2.18,3.837C322.513,299.932,273.958,315.607,271.971,315.764Z" fill="#e9a283"/>
                    <path id="Trazado_3307" data-name="Trazado 3307" d="M271.971,315.764c-1.313.1-11.787,2.18-22.737,4.461l-3.645-11.279a103.307,103.307,0,0,0,16-6.7,32.332,32.332,0,0,0,5.536-3.64c8.247-6.743,38.614-30.224,48.286-18.848C330.391,297.387,274.115,315.6,271.971,315.764Z" fill="#9dad3d"/>
                    <path id="Trazado_3308" data-name="Trazado 3308" d="M221.58,325.523c-9.535.451-16.795-2.606-15.507-10.337.862-5.166,6.636-5.708,11.4-5.14C217.469,310.046,208.932,322.947,221.58,325.523Z" fill="#ea756a"/>
                    <path id="Trazado_3309" data-name="Trazado 3309" d="M271.971,315.764c-1.313.1-11.787,2.18-22.737,4.461-6.945,1.445-14.088,2.971-19.213,4.127a48.768,48.768,0,0,1-8.441,1.171c56.25-6.053,98.171-40.855,96.006-41.93C322.513,299.932,273.958,315.607,271.971,315.764Z" opacity="0.1"/>
                  </g>
                  <g id="Grupo_11854" data-name="Grupo 11854">
                    <path id="Trazado_3310" data-name="Trazado 3310" d="M208.127,315.764c1.313.1,11.786,2.18,22.737,4.461,6.945,1.445,14.088,2.971,19.213,4.127a48.77,48.77,0,0,0,8.44,1.171c9.536.451,16.8-2.606,15.508-10.337-.862-5.166-6.636-5.708-11.4-5.14a30.329,30.329,0,0,0-4.3.831,28.927,28.927,0,0,1-10.311.968,66.126,66.126,0,0,1-13.506-2.9,103.329,103.329,0,0,1-15.994-6.7,32.331,32.331,0,0,1-5.536-3.64c-8.248-6.743-38.614-30.224-48.286-18.848a10.6,10.6,0,0,0-2.18,3.837C157.584,299.932,206.14,315.607,208.127,315.764Z" fill="#feb18f"/>
                    <path id="Trazado_3311" data-name="Trazado 3311" d="M208.127,315.764c1.313.1,11.786,2.18,22.737,4.461l3.644-11.279a103.329,103.329,0,0,1-15.994-6.7,32.331,32.331,0,0,1-5.536-3.64c-8.248-6.743-38.614-30.224-48.286-18.848C149.707,297.387,205.983,315.6,208.127,315.764Z" fill="#abbd43"/>
                    <path id="Trazado_3312" data-name="Trazado 3312" d="M258.517,325.523c9.536.451,16.8-2.606,15.508-10.337-.862-5.166-6.636-5.708-11.4-5.14C262.629,310.046,271.166,322.947,258.517,325.523Z" fill="#ff8073"/>
                    <path id="Trazado_3313" data-name="Trazado 3313" d="M208.127,315.764c1.313.1,11.786,2.18,22.737,4.461,6.945,1.445,14.088,2.971,19.213,4.127a48.77,48.77,0,0,0,8.44,1.171c-56.249-6.053-98.17-40.855-96.005-41.93C157.584,299.932,206.14,315.607,208.127,315.764Z" opacity="0.1"/>
                  </g>
                  <path id="Trazado_3314" data-name="Trazado 3314" d="M263.4,212.119c-2.909,11.295-11.061,19.426-20.663,19.426-9.515,0-17.606-7.989-20.577-19.127,8.446-2.966,21.074-2.484,21.074-2.484S254.988,209.488,263.4,212.119Z" fill="#feb18f"/>
                  <g id="Grupo_11857" data-name="Grupo 11857">
                    <g id="Grupo_11855" data-name="Grupo 11855">
                      <path id="Trazado_3315" data-name="Trazado 3315" d="M240.2,264.429s18.394-22.9,34.878-29.152l3.471,44.249S247.313,284.385,240.2,264.429Z" fill="#fcfcfc"/>
                      <path id="Trazado_3316" data-name="Trazado 3316" d="M240.2,267.553s16.658-21.344,38.349-31.582l3.644,39.217S247.139,277.27,240.2,267.553Z" fill="#eaeaea"/>
                      <path id="Trazado_3317" data-name="Trazado 3317" d="M239.764,269.982s3.818-11.8,40.6-32.1l2.256,43.555S244.276,276.749,239.764,269.982Z" fill="#d8d8d8"/>
                    </g>
                    <g id="Grupo_11856" data-name="Grupo 11856">
                      <path id="Trazado_3318" data-name="Trazado 3318" d="M243.523,264.429s-18.393-22.9-34.878-29.152l-3.471,44.249S236.409,284.385,243.523,264.429Z" fill="#fcfcfc"/>
                      <path id="Trazado_3319" data-name="Trazado 3319" d="M243.523,267.553s-16.658-21.344-38.349-31.582l-3.644,39.217S236.582,277.27,243.523,267.553Z" fill="#eaeaea"/>
                      <path id="Trazado_3320" data-name="Trazado 3320" d="M243.957,269.982s-3.818-11.8-40.6-32.1L201.1,281.435S239.445,276.749,243.957,269.982Z" fill="#d8d8d8"/>
                    </g>
                    <path id="Trazado_3321" data-name="Trazado 3321" d="M285.152,240.059l-38.394,16.834v51.884l40.957-18.117Z" fill="#683ba3"/>
                    <path id="Trazado_3322" data-name="Trazado 3322" d="M198.229,240.059l38.394,16.834v51.884L195.667,290.66Z" fill="#5b3696"/>
                    <path id="Trazado_3323" data-name="Trazado 3323" d="M246.758,308.777a13.923,13.923,0,0,1-10.134,0V256.894a15.24,15.24,0,0,0,10.134,0Z" fill="#7c47b3"/>
                    <path id="Trazado_3324" data-name="Trazado 3324" d="M198.229,242.315l38.395,16.834a15.227,15.227,0,0,0,10.134,0l38.394-16.834L287.6,290.71l.112-.05-2.563-50.6-38.394,16.835a15.24,15.24,0,0,1-10.134,0l-38.395-16.835-2.562,50.6.111.05Z" opacity="0.1"/>
                    <path id="Trazado_3325" data-name="Trazado 3325" d="M252.773,265.385l.981,30.934,28.4-11.89-.94-31Z" fill="#5b3696"/>
                  </g>
                  <g id="Grupo_11858" data-name="Grupo 11858">
                    <path id="Trazado_3326" data-name="Trazado 3326" d="M290.045,264.644a12.892,12.892,0,0,1-2.627.026,52.369,52.369,0,0,1-7.766-1.4c-2.257-.514-6.138-1.675-6.783-.492s1.165,2.085,3.238,2.508,7.737,1.752,7.626,2.149-.912.31-3.409.089-5.494-.3-6.57-.286-3.14.088-3.157,1.251,2.307,1.287,3.019,1.369,10.317.589,10.284,1.214-2.519.181-5.126.357-5.7.148-5.678,1.492,3.075,1.148,5.005,1.071a40.3,40.3,0,0,1,6.471.251c.259.193-.093.5-2.125.8s-5.975.122-5.907,1.38.969,1.171,2.8,1.178c1.286.005,4-.222,5.509-.358Z" fill="#feb18f"/>
                    <path id="Trazado_3327" data-name="Trazado 3327" d="M290.045,264.644s4.209-.008,3.611,4.734-4.161,8.918-8.8,7.857Z" fill="#feb18f"/>
                  </g>
                  <g id="Grupo_11859" data-name="Grupo 11859">
                    <path id="Trazado_3328" data-name="Trazado 3328" d="M193.207,266.185a12.9,12.9,0,0,0,2.628.026,52.191,52.191,0,0,0,7.765-1.4c2.257-.515,6.138-1.676,6.783-.493s-1.165,2.085-3.238,2.508-7.736,1.752-7.626,2.15.913.31,3.409.089,5.494-.3,6.57-.286,3.141.087,3.157,1.251-2.306,1.286-3.019,1.369-10.316.588-10.283,1.214,2.518.181,5.125.357,5.7.147,5.678,1.492-3.075,1.148-5.005,1.07a40.274,40.274,0,0,0-6.471.252c-.259.193.094.5,2.125.795s5.975.122,5.907,1.379-.968,1.171-2.8,1.179c-1.287.005-4-.222-5.509-.359Z" fill="#feb18f"/>
                    <path id="Trazado_3329" data-name="Trazado 3329" d="M193.207,266.185s-4.209-.007-3.611,4.734,4.161,8.918,8.8,7.857Z" fill="#feb18f"/>
                  </g>
                  <path id="Trazado_3330" data-name="Trazado 3330" d="M251.323,210.481h-18c1.607-1.789,2.038-5.764,2.155-7.66.035-.643.04-1.044.04-1.044h14.235a9.662,9.662,0,0,0-.1,1.141A18.949,18.949,0,0,0,251.323,210.481Z" fill="#feb18f"/>
                  <path id="Trazado_3331" data-name="Trazado 3331" d="M249.751,201.777a9.662,9.662,0,0,0-.1,1.141,12.08,12.08,0,0,1-14.179-.1c.035-.643.04-1.044.04-1.044Z" fill="#ed9e7e"/>
                  <ellipse id="Elipse_551" data-name="Elipse 551" cx="16.837" cy="24.774" rx="16.837" ry="24.774" transform="translate(225.798 154.549)" fill="#feb18f"/>
                </g>
                <path id="Trazado_3332" data-name="Trazado 3332" d="M232.036,163.223s4.527,16.533,24.012,13.187a22.929,22.929,0,0,1-12.006-15.155s9.054,14.368,20.863,14.762c0,0-9.841-13.384-11.022-19.683s-13.974-5.511-17.32-3.739S232.036,163.223,232.036,163.223Z" fill="#2e353d"/>
                <path id="Trazado_3333" data-name="Trazado 3333" d="M234.128,154.55s.26,17.207-11.264,23.012C222.864,177.562,220.005,159.523,234.128,154.55Z" fill="#2e353d"/>
              </g>
            </g>
          </g>
        </g>
      </g>
    </g>
  </g>
</svg>
